<svg xmlns="http://www.w3.org/2000/svg" fill="none" viewBox="0 0 355 240">
    <defs />
    <rect width="355" height="230.2" y="9.8" fill="#B403FF" rx="8" />
    <rect width="355" height="230.2" fill="#F1F8FF" rx="8" />
    <path fill="#000"
        d="M52.8 166.9c-.8 1-2 1.4-3.4 1.4a5 5 0 01-3.7-1.5c-1-1.2-1.6-2.9-1.6-5.2 0-2 .5-3.6 1.5-4.8 1-1.1 2.3-1.7 3.8-1.7 1.2 0 2.2.4 3 1.2.9.7 1.4 1.7 1.6 3l-1.2.2c-.5-2.2-1.6-3.2-3.4-3.2-1.2 0-2.1.4-3 1.3-.7 1-1 2.2-1 4 0 1.8.3 3.2 1 4.1.8 1 1.8 1.4 3 1.4 1.1 0 2-.3 2.6-1 .7-.8 1-1.7 1-3h-3.5V162h4.7v1c0 1.7-.5 3-1.4 3.9zm10.9-1.7l1 .5a4.3 4.3 0 01-4 2.6 4 4 0 01-3.2-1.4c-.8-1-1.3-2.1-1.3-3.7 0-1.5.4-2.7 1.2-3.6a4 4 0 013.2-1.4 4 4 0 013 1.3c.9 1 1.2 2.1 1.2 3.7v.4h-7.4c0 1 .3 1.8.8 2.5.6.7 1.4 1 2.4 1 .7 0 1.4 0 2-.4l.5-.6.6-1zm-6.2-2.6h6.1a3.9 3.9 0 00-.6-2.2c-.2-.3-.5-.6-1-.8-.4-.2-.9-.3-1.4-.3-.6 0-1 0-1.5.3-.4.2-.7.5-1 .9a4 4 0 00-.6 2zm11.1 5.4h-1.1v-9.5h1.1v.9c.3-.4.7-.7 1.2-.9a4 4 0 011.6-.3 3.4 3.4 0 013.5 3.5v6.3h-1.1v-5.8c0-1-.2-1.7-.6-2.2-.4-.5-1-.7-1.8-.7-.9 0-1.5.2-2 .7-.5.4-.8 1-.8 1.8v6.2zm16.3-2.8l1 .5a4.3 4.3 0 01-4 2.6 4 4 0 01-3.2-1.4c-.8-1-1.2-2.1-1.2-3.7 0-1.5.4-2.7 1.2-3.6a4 4 0 013.1-1.4 4 4 0 013.1 1.3c.8 1 1.2 2.1 1.2 3.7v.4h-7.4c0 1 .2 1.8.8 2.5.5.7 1.3 1 2.4 1 .7 0 1.3 0 1.9-.4l.5-.6c.2-.1.4-.5.6-1zm-6.2-2.6h6.2a3.9 3.9 0 00-.7-2.2c-.2-.3-.5-.6-1-.8-.3-.2-.8-.3-1.4-.3-.5 0-1 0-1.5.3-.4.2-.7.5-1 .9a4 4 0 00-.6 2zm11.2 5.4h-1.2v-9.5h1.1v1a2 2 0 012-1.2l.8.1-.2 1.3-.7-.2c-.6 0-1 .2-1.4.6-.3.4-.4 1-.4 1.7v6.2zm11.6 0h-1v-1.1c-.3.4-.7.7-1.2 1-.6.2-1.2.4-1.9.4-1 0-1.8-.3-2.3-.8-.6-.5-.8-1.1-.8-2 0-.7.2-1.3.7-1.8.5-.4 1.3-.8 2.4-1.1l.8-.2.6-.2.6-.2c.7-.4 1-.8.9-1.2 0-.4-.2-.8-.6-1.1-.3-.3-.9-.4-1.5-.4-1.4 0-2.2.6-2.5 2l-1-.3c0-.8.4-1.5 1-2 .6-.6 1.4-.8 2.4-.8 2.3 0 3.4 1 3.4 3.2v6.6zm-3.7-4.4c-1 .2-1.5.5-1.9.8-.3.3-.5.6-.5 1.1 0 1.1.7 1.7 2 1.7 1 0 1.7-.2 2.2-.6.5-.5.8-1 .8-1.6v-2.7c-.2.4-1 .8-2.6 1.3zm7.1 1.8v-5.9h-1.3v-1h1.4V156h1.1v2.4h2.3v1h-2.3v5.8c0 .6 0 1 .2 1.2.2.2.5.3 1 .3h.6v1.2h-.7c-1.5 0-2.3-.9-2.3-2.6zm12.5-.2l1 .5a4.3 4.3 0 01-4 2.6 4 4 0 01-3.2-1.4c-.8-1-1.2-2.1-1.2-3.7 0-1.5.4-2.7 1.2-3.6a4 4 0 013.1-1.4 4 4 0 013.1 1.3c.8 1 1.2 2.1 1.2 3.7v.4h-7.4c0 1 .2 1.8.8 2.5.5.7 1.3 1 2.4 1 .7 0 1.3 0 1.9-.4l.5-.6c.2-.1.4-.5.6-1zm-6.2-2.6h6.2a3.9 3.9 0 00-.7-2.2c-.2-.3-.5-.6-1-.8-.3-.2-.8-.3-1.4-.3-.5 0-1 0-1.5.3-.4.2-.7.5-1 .9a4 4 0 00-.6 2zm9.7 6l-.9-.3 6.5-13.7.9.4-6.5 13.6zm13.3-.3a5 5 0 01-3.7-1.5c-1-1.2-1.6-2.9-1.6-5.2 0-2 .5-3.6 1.5-4.8 1-1.1 2.3-1.7 3.8-1.7 1.3 0 2.3.4 3.2 1.3.8.8 1.4 1.8 1.5 3l-1.2.3c-.2-1-.6-1.9-1.2-2.5a3 3 0 00-2.3-1c-1.2 0-2.1.5-3 1.4-.7 1-1 2.2-1 4 0 1.7.3 3 1 4 .8 1 1.8 1.5 3 1.5 2 0 3.3-1.2 3.5-3.7l1.3.2a5.3 5.3 0 01-1.5 3.4c-.9.9-2 1.3-3.3 1.3zm11-1.1c.9 0 1.6-.4 2.2-1 .6-.8.9-1.7.9-3 0-1.2-.3-2.2-.9-2.9-.6-.7-1.3-1-2.2-1-.9 0-1.6.3-2.2 1-.6.7-.9 1.7-.9 3 0 1.2.3 2.2.9 2.9.6.6 1.3 1 2.2 1zm0 1a4 4 0 01-3-1.3 5.3 5.3 0 01-1.2-3.7c0-1.5.4-2.8 1.2-3.7a4 4 0 013-1.3c1.2 0 2.2.4 3 1.3.8 1 1.2 2.2 1.2 3.7 0 1.6-.4 2.9-1.2 3.7-.7 1-1.7 1.4-3 1.4zm8-6.5v3.4c0 .5.3 1 .7 1.5.6.4 1.2.6 1.9.6 1 0 1.8-.4 2.3-1 .6-.7.9-1.7.9-3 0-1.2-.3-2.2-.9-2.9-.5-.7-1.3-1-2.3-1-.8 0-1.4.2-1.9.7-.5.5-.7 1.1-.7 1.7zm0 10.4H152v-13.6h1.2v.9a3 3 0 011.2-.9 4 4 0 011.6-.3c1.2 0 2.2.5 3 1.4.7.9 1.1 2.1 1.1 3.6 0 1.6-.4 2.8-1.1 3.7-.7 1-1.7 1.4-3 1.4a4 4 0 01-1.6-.4c-.5-.2-1-.5-1.2-.8v5zm10.7 0h-1.2l2-5-3.5-8.6h1.2l2.8 7.3 2.8-7.3h1.3l-5.4 13.6zm13.5-4.1h-1.2v-8.5h-1.3v-1h1.3v-1c0-.7.1-1.3.5-1.6.3-.3.8-.5 1.4-.5h1.3v1h-1c-.5 0-.7.2-.9.3l-.1 1v.8h4.8v9.5h-1.1v-8.5h-3.7v8.5zm5-11.1h-1.5v-1.5h1.5v1.5zm4.4 11.1h-1.2v-13.1h1.2V168zm10-2.8l1 .5a4.3 4.3 0 01-4 2.6 4 4 0 01-3.2-1.4c-.8-1-1.2-2.1-1.2-3.7 0-1.5.4-2.7 1.2-3.6a4 4 0 013.1-1.4 4 4 0 013.1 1.3c.8 1 1.2 2.1 1.2 3.7v.4h-7.4c0 1 .3 1.8.8 2.5s1.3 1 2.4 1c.7 0 1.3 0 1.9-.4.2-.1.4-.3.5-.6.2-.1.4-.5.6-1zm-6.2-2.6h6.2a3.9 3.9 0 00-.7-2.2c-.2-.3-.5-.6-1-.8-.3-.2-.8-.3-1.4-.3-.5 0-1 0-1.4.3-.5.2-.8.5-1 .9a4 4 0 00-.7 2zm9.3 2.1l1.2-.2c.2 1.8 1 2.7 2.7 2.7a3 3 0 001.8-.4c.4-.3.6-.7.6-1.2 0-.6-.1-1-.5-1.3-.4-.3-1.1-.6-2.3-.9-1.2-.3-2-.6-2.5-1-.5-.5-.7-1-.7-1.7s.3-1.3.9-1.8c.6-.5 1.3-.7 2.3-.7 1 0 1.8.2 2.4.7.7.5 1 1.2 1.2 2l-1 .3c-.4-1.3-1.2-2-2.6-2-.6 0-1.1.2-1.5.4-.4.3-.6.7-.6 1.1 0 .4.2.8.5 1 .4.2 1 .5 2.2.8 1.3.4 2.2.8 2.6 1.2.5.4.8 1 .8 1.8s-.3 1.5-1 2c-.5.5-1.4.8-2.6.8a4 4 0 01-2.8-1c-.7-.6-1-1.5-1.1-2.6zM221 168h-1v-1.1c-.3.4-.7.7-1.2 1-.6.2-1.2.4-2 .4-.9 0-1.7-.3-2.2-.8-.6-.5-.8-1.1-.8-2 0-.7.2-1.3.7-1.8.5-.4 1.3-.8 2.4-1.1l.8-.2.6-.2.6-.2c.7-.4 1-.8.9-1.2 0-.4-.2-.8-.6-1.1-.3-.3-.9-.4-1.6-.4-1.3 0-2.1.6-2.4 2l-1.1-.3c.1-.8.5-1.5 1.1-2 .6-.6 1.4-.8 2.4-.8 2.3 0 3.4 1 3.4 3.2v6.6zm-3.7-4.4c-1 .2-1.5.5-1.9.8-.3.3-.5.6-.5 1.1 0 1.1.7 1.7 2 1.7 1 0 1.7-.2 2.2-.6.5-.5.8-1 .8-1.6v-2.7c-.2.4-1 .8-2.6 1.3zm13.2.8l1.1.2c0 1-.5 2-1.2 2.6-.7.7-1.6 1-2.7 1a4 4 0 01-3-1.2 5.5 5.5 0 01-1.2-3.8c0-1.5.4-2.8 1.2-3.7a4 4 0 013-1.3c1 0 2 .3 2.7 1 .7.6 1.1 1.5 1.2 2.5l-1.1.2c-.2-.8-.4-1.4-1-1.9-.4-.5-1-.7-1.7-.7-1 0-1.7.3-2.3 1-.6.7-.9 1.7-.9 3 0 1.2.3 2.1.9 2.8.5.7 1.3 1 2.2 1 .9 0 1.5-.2 2-.7a4 4 0 00.8-2zm4.8 3.6h-1.2v-9.5h1.2v1a2 2 0 012-1.2l.7.1h.1l-.2 1.3-.8-.2c-.5 0-1 .2-1.3.6-.3.4-.5 1-.5 1.7v6.2zm8.4-.8c.8 0 1.5-.4 2.1-1 .6-.8.9-1.7.9-3 0-1.2-.3-2.2-.9-2.9-.5-.7-1.3-1-2.1-1-1 0-1.7.3-2.3 1-.6.7-.9 1.7-.9 3 0 1.2.3 2.2 1 2.9.5.6 1.3 1 2.2 1zm0 1a4 4 0 01-3.1-1.3 5.3 5.3 0 01-1.2-3.7c0-1.5.4-2.8 1.2-3.7a4 4 0 013-1.3c1.2 0 2.2.4 3 1.3.8 1 1.2 2.2 1.2 3.7 0 1.6-.3 2.9-1.1 3.7-.8 1-1.8 1.4-3 1.4zm6-3.5l1.2-.2c.2 1.8 1.1 2.7 2.8 2.7a3 3 0 001.8-.4c.4-.3.6-.7.6-1.2 0-.6-.2-1-.6-1.3-.3-.3-1-.6-2.2-.9-1.2-.3-2-.6-2.5-1-.5-.5-.7-1-.7-1.7s.3-1.3.8-1.8c.6-.5 1.4-.7 2.4-.7s1.8.2 2.4.7c.6.5 1 1.2 1.2 2l-1 .3c-.5-1.3-1.3-2-2.6-2-.7 0-1.2.2-1.6.4-.3.3-.5.7-.5 1.1 0 .4.1.8.5 1 .3.2 1 .5 2.1.8 1.3.4 2.2.8 2.7 1.2.5.4.7 1 .7 1.8s-.3 1.5-.9 2c-.6.5-1.5.8-2.6.8a4 4 0 01-2.8-1c-.7-.6-1-1.5-1.2-2.6zm9.3 0l1.2-.2c.2 1.8 1.1 2.7 2.8 2.7a3 3 0 001.8-.4c.4-.3.6-.7.6-1.2 0-.6-.2-1-.6-1.3-.4-.3-1.1-.6-2.3-.9-1.2-.3-2-.6-2.5-1-.4-.5-.7-1-.7-1.7s.3-1.3 1-1.8c.5-.5 1.3-.7 2.3-.7 1 0 1.8.2 2.4.7.6.5 1 1.2 1.2 2l-1.1.3c-.4-1.3-1.2-2-2.5-2-.7 0-1.2.2-1.6.4-.4.3-.5.7-.5 1.1 0 .4.1.8.4 1l2.2.8c1.3.4 2.2.8 2.7 1.2.5.4.7 1 .7 1.8s-.3 1.5-1 2c-.5.5-1.4.8-2.5.8a4 4 0 01-2.8-1c-.7-.6-1-1.5-1.2-2.6zM45.8 191h-1.2v-9.5h1v.9h.1c.2-.4.6-.7 1-.9l1.5-.3c1.1 0 2 .5 2.5 1.4.3-.4.7-.7 1.2-1 .5-.3 1-.4 1.6-.4 1 0 1.8.3 2.3.9.6.6.9 1.4.9 2.4v6.5h-1.2v-6c0-1.8-.7-2.7-2-2.7a2 2 0 00-1.7.6c-.4.5-.6 1.1-.6 2v6.1H50v-6c0-1-.1-1.7-.5-2-.3-.5-.8-.7-1.5-.7s-1.3.2-1.7.7c-.3.4-.5 1-.5 1.8v6.2zm14-3.3v-6.2h1v6c0 1 .3 1.7.7 2 .3.5 1 .7 1.9.7.7 0 1.3-.3 1.7-.7a3 3 0 00.6-2v-6H67v9.5h-1.2v-1 .2l-.4.3-.5.4a3.6 3.6 0 01-1.7.4c-1 0-1.9-.3-2.5-1-.6-.5-.9-1.4-.9-2.6zm11.5 3.3h-1.1v-13.1h1.1V191zm3.6-2.6v-5.9h-1.3v-1H75V179h1v2.4h2.4v1h-2.3v5.8c0 .6 0 1 .2 1.2.2.2.5.3 1 .3h.6v1.2h-.7c-1.5 0-2.3-.9-2.3-2.6zm7.4 2.6H81v-9.5h1.2v9.5zm0-11.1H81v-1.5h1.5v1.5zm4.5 4.8v3.4c0 .5.2 1 .7 1.5.6.4 1.2.6 1.9.6 1 0 1.8-.4 2.3-1 .6-.7.8-1.7.8-3 0-1.2-.2-2.2-.8-2.9-.5-.7-1.3-1-2.3-1-.8 0-1.4.2-1.9.7-.5.5-.7 1.1-.7 1.7zm0 10.4h-1.2v-13.6h1.1v.9a3 3 0 011.3-.9 4 4 0 011.6-.3c1.2 0 2.2.5 3 1.4.7.9 1.1 2.1 1.1 3.6 0 1.6-.4 2.8-1.1 3.7-.8 1-1.8 1.4-3 1.4a4 4 0 01-1.6-.4c-.5-.2-1-.5-1.2-.8v5zm10.7-4.1h-1.2v-13.1h1.2V191zm10-2.8l1 .5a4.3 4.3 0 01-4 2.6 4 4 0 01-3.2-1.4c-.8-1-1.2-2.1-1.2-3.7 0-1.5.4-2.7 1.2-3.6a4 4 0 013.1-1.4 4 4 0 013.1 1.3c.8 1 1.2 2.1 1.2 3.7v.4h-7.4c0 1 .3 1.8.8 2.5s1.3 1 2.4 1c.7 0 1.3 0 1.9-.4.2-.1.4-.3.5-.6.2-.1.4-.5.6-1zm-6.2-2.6h6.2a3.9 3.9 0 00-.7-2.2c-.2-.3-.5-.6-1-.8-.3-.2-.8-.3-1.4-.3-.5 0-1 0-1.4.3-.5.2-.8.5-1 .9a4 4 0 00-.7 2zM117 191h-1.2v-9.5h1.1v1a2 2 0 012-1.2l.8.1-.2 1.3c0-.1-.3-.2-.7-.2-.6 0-1 .2-1.3.6-.4.4-.5 1-.5 1.7v6.2zm11.8-2.8l1 .5a4.3 4.3 0 01-4 2.6 4 4 0 01-3.2-1.4c-.8-1-1.2-2.1-1.2-3.7 0-1.5.4-2.7 1.2-3.6a4 4 0 013.1-1.4 4 4 0 013.1 1.3c.8 1 1.2 2.1 1.2 3.7v.4h-7.4c0 1 .2 1.8.8 2.5.5.7 1.3 1 2.4 1 .7 0 1.3 0 1.9-.4l.5-.6c.2-.1.4-.5.6-1zm-6.2-2.6h6.2a3.9 3.9 0 00-.7-2.2c-.2-.3-.5-.6-1-.8-.3-.2-.8-.3-1.4-.3-.5 0-1 0-1.5.3-.4.2-.7.5-1 .9a4 4 0 00-.6 2zm11.2-.9v3.4c0 .5.2 1 .7 1.5.5.4 1.1.6 1.9.6 1 0 1.8-.4 2.3-1 .5-.7.8-1.7.8-3 0-1.2-.3-2.2-.8-2.9-.6-.7-1.3-1-2.3-1-.8 0-1.4.2-2 .7-.4.5-.6 1.1-.6 1.7zm0 10.4h-1.2v-13.6h1.1v.9a3 3 0 011.2-.9 4 4 0 011.6-.3c1.2 0 2.2.5 3 1.4.8.9 1.2 2.1 1.2 3.6 0 1.6-.4 2.8-1.2 3.7-.7 1-1.7 1.4-3 1.4a4 4 0 01-1.6-.4c-.5-.2-.9-.5-1-.8h-.1v5zm13.1-5c.9 0 1.6-.3 2.2-1 .6-.7.9-1.6.9-2.9 0-1.2-.3-2.2-.9-2.9-.5-.7-1.3-1-2.2-1-.9 0-1.6.3-2.2 1-.6.7-.9 1.7-.9 3 0 1.2.3 2.2 1 2.9.5.6 1.3 1 2.1 1zm0 1.2a4 4 0 01-3-1.4 5.3 5.3 0 01-1.2-3.7c0-1.5.4-2.8 1.2-3.7a4 4 0 013-1.3c1.2 0 2.2.4 3 1.3.8 1 1.2 2.2 1.2 3.7 0 1.6-.4 2.9-1.2 3.7-.7 1-1.7 1.4-3 1.4zm6.1-3.6l1.2-.2c.2 1.8 1.1 2.7 2.8 2.7a3 3 0 001.8-.4c.4-.3.6-.7.6-1.2 0-.6-.2-1-.6-1.3-.4-.3-1.1-.6-2.2-.9-1.2-.3-2-.6-2.5-1-.5-.5-.8-1-.8-1.7s.3-1.3 1-1.8c.5-.5 1.3-.7 2.3-.7 1 0 1.8.2 2.4.7.6.5 1 1.2 1.2 2l-1.1.3c-.4-1.3-1.2-2-2.5-2-.7 0-1.2.2-1.6.4-.3.3-.5.7-.5 1.1 0 .4.1.8.5 1 .3.2 1 .5 2.1.8 1.3.4 2.2.8 2.7 1.2.5.4.7 1 .7 1.8s-.3 1.5-1 2c-.5.5-1.4.8-2.5.8a4 4 0 01-2.8-1c-.7-.6-1-1.5-1.2-2.6zm11.3 3.3h-1.1v-9.5h1.1v9.5zm.2-11.1H163v-1.5h1.5v1.5zm3.6 8.5v-5.9h-1.4v-1h1.4V179h1.1v2.4h2.4v1h-2.4v5.8c0 .6.1 1 .3 1.2.1.2.4.3.9.3h.7v1.2h-.8c-1.5 0-2.2-.9-2.2-2.6zm9.3 1.8c.8 0 1.6-.4 2.1-1 .6-.8 1-1.7 1-3 0-1.2-.4-2.2-1-2.9-.5-.7-1.2-1-2.1-1-1 0-1.7.3-2.3 1-.5.7-.8 1.7-.8 3 0 1.2.3 2.2.9 2.9.6.6 1.3 1 2.2 1zm0 1a4 4 0 01-3-1.3 5.3 5.3 0 01-1.3-3.7c0-1.5.4-2.8 1.2-3.7a4 4 0 013-1.3c1.2 0 2.2.4 3 1.3.9 1 1.3 2.2 1.3 3.7 0 1.6-.4 2.9-1.2 3.7-.8 1-1.8 1.4-3 1.4zm8-.2h-1.2v-9.5h1.1v1a2 2 0 012-1.2l.8.1-.2 1.3-.7-.2c-.6 0-1 .2-1.4.6-.3.4-.4 1-.4 1.7v6.2zm6.3 0h-1.2v-9.5h1.2v9.5zm.2-11.1h-1.5v-1.5h1.5v1.5zm10 8.3l1 .5a4.3 4.3 0 01-4 2.6 4 4 0 01-3.2-1.4c-.8-1-1.2-2.1-1.2-3.7 0-1.5.4-2.7 1.2-3.6a4 4 0 013.1-1.4 4 4 0 013 1.3c.9 1 1.3 2.1 1.3 3.7v.4h-7.5c0 1 .3 1.8.9 2.5.5.7 1.3 1 2.3 1 .8 0 1.4 0 2-.4l.5-.6.6-1zm-6.2-2.6h6.2a3.9 3.9 0 00-.7-2.2c-.2-.3-.5-.6-1-.8-.4-.2-.9-.3-1.4-.3-.6 0-1 0-1.5.3-.4.2-.7.5-1 .9a4 4 0 00-.6 2zm9.3 2.1l1.1-.2c.2 1.8 1.1 2.7 2.8 2.7a3 3 0 001.8-.4c.4-.3.6-.7.6-1.2 0-.6-.2-1-.6-1.3-.3-.3-1-.6-2.2-.9-1.2-.3-2-.6-2.5-1-.5-.5-.7-1-.7-1.7s.3-1.3.8-1.8c.6-.5 1.4-.7 2.4-.7s1.8.2 2.4.7c.6.5 1 1.2 1.2 2l-1 .3c-.4-1.3-1.3-2-2.6-2-.7 0-1.2.2-1.6.4-.3.3-.5.7-.5 1.1 0 .4.2.8.5 1 .3.2 1 .5 2.2.8 1.2.4 2.1.8 2.6 1.2.5.4.7 1 .7 1.8s-.3 1.5-.9 2c-.6.5-1.5.8-2.6.8a4 4 0 01-2.8-1c-.7-.6-1-1.5-1.1-2.6zm17 3.3h-1.2l-2-9.5h1.1l1.6 7.4 2.7-7.4h1.1l2.7 7.4 1.8-7.4h1.2l-2.3 9.5h-1l-3-8.1-2.8 8.1zm12.8 0h-1.1v-9.5h1.1v9.5zm.2-11.1h-1.5v-1.5h1.5v1.5zm3.6 8.5v-5.9h-1.4v-1h1.4V179h1.1v2.4h2.4v1h-2.4v5.8c0 .6.1 1 .3 1.2.1.2.4.3.9.3h.7v1.2h-.8c-1.5 0-2.3-.9-2.3-2.6zm7.1 2.6h-1.1v-13.1h1.1v4.6a3 3 0 011.3-1 4 4 0 011.7-.3c1 0 1.8.3 2.4 1 .6.6 1 1.4 1 2.6v6.2h-1.3v-5.8c0-2-.7-3-2.3-3-.8 0-1.5.3-2 .8s-.8 1.2-.8 2v6zm20.7-2.8l1 .5a4.3 4.3 0 01-4 2.6 4 4 0 01-3.1-1.4c-.9-1-1.3-2.1-1.3-3.7 0-1.5.4-2.7 1.2-3.6a4 4 0 013.2-1.4 4 4 0 013 1.3c.8 1 1.2 2.1 1.2 3.7v.4h-7.4c0 1 .3 1.8.8 2.5.6.7 1.4 1 2.4 1 .7 0 1.4 0 2-.4l.5-.6.5-1zm-6.2-2.6h6.2a3.9 3.9 0 00-.6-2.2c-.2-.3-.6-.6-1-.8-.4-.2-.9-.3-1.4-.3-.6 0-1 0-1.5.3-.4.2-.8.5-1 .9a4 4 0 00-.7 2zM277 191h-1.1v-1.1c-.2.4-.6.7-1.2 1-.5.2-1.1.4-1.9.4-1 0-1.7-.3-2.3-.8-.5-.5-.8-1.1-.8-2 0-.7.2-1.3.7-1.8.5-.4 1.3-.8 2.5-1.1l.7-.2.7-.2.6-.2c.6-.4.9-.8.8-1.2 0-.4-.2-.8-.5-1.1-.4-.3-1-.4-1.6-.4-1.4 0-2.2.6-2.4 2l-1.2-.3c.2-.8.5-1.5 1.1-2 .7-.6 1.5-.8 2.4-.8 2.3 0 3.5 1 3.5 3.2v6.6zm-3.8-4.4c-.9.2-1.5.5-1.8.8-.4.3-.5.6-.5 1.1 0 1.1.7 1.7 2 1.7 1 0 1.6-.2 2.1-.6.5-.5.8-1 .8-1.6v-2.7c-.2.4-1 .8-2.6 1.3zm6.1 1.1l1.2-.2c.2 1.8 1.1 2.7 2.8 2.7a3 3 0 001.8-.4c.4-.3.6-.7.6-1.2 0-.6-.2-1-.6-1.3-.4-.3-1.1-.6-2.3-.9-1.2-.3-2-.6-2.5-1-.4-.5-.7-1-.7-1.7s.3-1.3 1-1.8c.5-.5 1.3-.7 2.3-.7 1 0 1.8.2 2.4.7.6.5 1 1.2 1.2 2l-1.1.3c-.4-1.3-1.2-2-2.5-2-.7 0-1.2.2-1.6.4-.4.3-.5.7-.5 1.1 0 .4.1.8.4 1l2.2.8c1.3.4 2.2.8 2.7 1.2.5.4.7 1 .7 1.8s-.3 1.5-1 2c-.5.5-1.4.8-2.5.8a4 4 0 01-2.8-1c-.7-.6-1.1-1.5-1.2-2.6zm16.8.5l1 .5a4.3 4.3 0 01-4 2.6 4 4 0 01-3.2-1.4c-.8-1-1.2-2.1-1.2-3.7 0-1.5.4-2.7 1.2-3.6a4 4 0 013.1-1.4 4 4 0 013.1 1.3c.8 1 1.2 2.1 1.2 3.7v.4h-7.4c0 1 .2 1.8.8 2.5.5.7 1.3 1 2.4 1 .7 0 1.3 0 1.9-.4.2-.1.4-.3.5-.6.2-.1.4-.5.6-1zm-6.2-2.6h6.2a3.9 3.9 0 00-.7-2.2c-.2-.3-.5-.6-1-.8-.3-.2-.8-.3-1.4-.3-.5 0-1 0-1.4.3-.5.2-.8.5-1 .9a4 4 0 00-.7 2zm12 1.8h-1.3v-9h1.2v9zm.3 3.6h-2v-2h2v2z" />
    <path fill="url(#paint0_linear)" fill-rule="evenodd"
        d="M87.1 53.9l10 9.6c.6.6 1 1.4 1 2.3V104c0 1.7-1.5 3.2-3.2 3.2H59.5a3.2 3.2 0 01-3.2-3.2V56.2c0-1.8 1.4-3.2 3.2-3.2h25.4c.8 0 1.6.3 2.2.9zm-27.6 50.5h35.4c.2 0 .4-.2.4-.4V66.3h-8.8c-.4-.2-.9-.3-1.2-.8-.3-.4-.4-.9-.4-1.2v-8.6H59.4c-.3 0-.5.2-.5.5V104c0 .2.2.4.5.4z"
        clip-rule="evenodd" />
    <path fill="url(#paint1_linear)" d="M86.6 62.9v-6l7.6 7.5h-6.4c-1.1 0-1.2 0-1.2-1.5z" />
    <path fill="url(#paint2_linear)"
        d="M54.9 64.4h-8.7a3.2 3.2 0 00-3.2 3.2v47.8c0 1.7 1.4 3.2 3.2 3.2h35.4c1.8 0 3.2-1.5 3.2-3.2v-6.7h-2.7v6.7c0 .2-.2.4-.5.4H46.2a.5.5 0 01-.5-.4V67.6c0-.2.2-.4.5-.4h8.7v-2.8z" />
    <path fill="#000"
        d="M130.9 104h-7.2V66.9h7.2v15.6l13.2-15.6h8.3l-13.8 16.4 15 20.7h-8.7l-11.2-15.3-2.8 3.7V104zm30.9-7.6c1 1.5 2.6 2.2 4.6 2.2 2 0 3.6-.7 4.7-2.2 1.1-1.6 1.7-3.7 1.7-6.4a10 10 0 00-1.8-6.4 5.4 5.4 0 00-4.6-2.3c-2 0-3.5.8-4.6 2.2A10.6 10.6 0 00160 90c0 2.7.5 4.8 1.7 6.4zm-8.5-6.4a15 15 0 013.8-11c2.5-2.6 5.6-3.9 9.3-3.9 3.7 0 6.8 1.3 9.3 4a15 15 0 013.9 10.9c0 4.7-1.3 8.3-3.8 10.9-2.5 2.6-5.6 3.9-9.4 3.9-3.8 0-7-1.3-9.4-4a15.1 15.1 0 01-3.7-10.8zm38.7-3v5.8c0 1.7.6 3 1.7 4.2a6 6 0 004.4 1.6c2 0 3.7-.8 5-2.3 1.2-1.5 1.9-3.6 1.9-6.3 0-2.8-.7-4.9-2-6.4a6 6 0 00-5-2.3 6 6 0 00-4.3 1.7 5.5 5.5 0 00-1.7 4zm0 29h-6.9V76h6.6v2.6h.1l.7-.9a10 10 0 016.9-2.6c3.3 0 6.2 1.4 8.7 4 2.5 2.7 3.8 6.3 3.8 10.9 0 4.5-1.2 8.1-3.6 10.8-2.4 2.7-5.4 4-8.8 4-1.8 0-3.4-.3-4.6-1a8 8 0 01-2.5-2.1l-.3-.4v14.6zm32.3-12h-6.9V76h7v28zm0-32.2h-6.9v-6.5h7v6.5zM250 94.3l4.8 4.2a13.4 13.4 0 01-11.6 6.3c-4 0-7.1-1.3-9.6-4a15.3 15.3 0 01-3.7-10.8c0-4.5 1.2-8.1 3.6-10.8 2.5-2.7 5.6-4 9.4-4 3.7 0 6.8 1.3 9.2 4 2.4 2.7 3.6 6.3 3.6 10.8v2H237c0 2.2.7 3.8 1.7 5a6 6 0 004.5 1.7c1.5 0 2.7-.4 3.7-1 1-.8 2.1-2 3.2-3.4zm-13.1-7.4H249a6.2 6.2 0 00-2-4.2 6 6 0 00-4.2-1.5c-1.7 0-3 .5-4.2 1.6a6.2 6.2 0 00-1.8 4zm31.3 17.1h-7V76h6.6v2.9h.1c.5-1 1.3-2 2.3-2.6a6.6 6.6 0 016-.4l-1 6.7a7 7 0 00-2.2-.4c-3.2 0-4.8 2.1-4.8 6.4V104z" />
    <defs>
        <linearGradient id="paint0_linear" x1="77.2" x2="77.2" y1="53" y2="107.2" gradientUnits="userSpaceOnUse">
            <stop stop-color="#006DFF" />
            <stop offset="1" stop-color="#B900FF" />
        </linearGradient>
        <linearGradient id="paint1_linear" x1="90.4" x2="90.4" y1="56.9" y2="64.4" gradientUnits="userSpaceOnUse">
            <stop stop-color="#83C0FF" />
            <stop offset="1" stop-color="#DBABFF" />
        </linearGradient>
        <linearGradient id="paint2_linear" x1="63.9" x2="63.9" y1="64.4" y2="118.6" gradientUnits="userSpaceOnUse">
            <stop stop-color="#006DFF" />
            <stop offset="1" stop-color="#B900FF" />
        </linearGradient>
    </defs>
</svg>
